<svg xmlns="http://www.w3.org/2000/svg" width="14.94" height="17.074" viewBox="0 0 14.94 17.074"><defs><style>.a{fill:#fff;}</style></defs><path class="a" d="M9.912,8.11a.874.874,0,1,1-.871-.948A.91.91,0,0,1,9.912,8.11ZM5.925,7.163a.951.951,0,0,0,0,1.9A.91.91,0,0,0,6.8,8.11.9.9,0,0,0,5.925,7.163Zm9.015-5.4V17.074c-2.151-1.9-1.463-1.271-3.961-3.594l.452,1.579H1.75A1.754,1.754,0,0,1,0,13.3V1.759A1.754,1.754,0,0,1,1.75,0H13.19A1.754,1.754,0,0,1,14.94,1.759ZM12.507,9.852a11.433,11.433,0,0,0-1.229-4.977,4.222,4.222,0,0,0-2.4-.9l-.12.137A5.682,5.682,0,0,1,10.885,5.2a7.254,7.254,0,0,0-6.377-.248C4.192,5.1,4,5.2,4,5.2A5.759,5.759,0,0,1,6.249,4.081l-.085-.1a4.222,4.222,0,0,0-2.4.9A11.433,11.433,0,0,0,2.536,9.852a3.1,3.1,0,0,0,2.6,1.3s.316-.384.572-.709A2.655,2.655,0,0,1,4.217,9.434c.126.088.333.2.35.213a6.223,6.223,0,0,0,5.327.3,4.885,4.885,0,0,0,.982-.5,2.694,2.694,0,0,1-1.545,1.016c.256.324.563.692.563.692a3.121,3.121,0,0,0,2.612-1.3Z"/></svg>