<svg xmlns="http://www.w3.org/2000/svg" width="16" height="16" viewBox="0 0 16 16"><defs><style>.a{fill:#fff;opacity:0.9;}</style></defs><path class="a" d="M5.5,6.747h5a.5.5,0,0,0,.5-.5v-.5a.5.5,0,0,0-.5-.5h-5a.5.5,0,0,0-.5.5v.5A.5.5,0,0,0,5.5,6.747ZM5,9.247a.5.5,0,0,0,.5.5h5a.5.5,0,0,0,.5-.5v-.5a.5.5,0,0,0-.5-.5h-5a.5.5,0,0,0-.5.5Zm3,3.785a2.5,2.5,0,0,1-1.464-.475L0,7.836V14.5A1.5,1.5,0,0,0,1.5,16h13A1.5,1.5,0,0,0,16,14.5V7.836L9.464,12.558A2.5,2.5,0,0,1,8,13.032Zm7.425-7.943c-.277-.217-.539-.421-.925-.713V3A1.5,1.5,0,0,0,13,1.5H10.577l-.283-.2C9.769.909,8.725-.014,8,0,7.275-.014,6.232.909,5.706,1.292l-.283.2H3A1.5,1.5,0,0,0,1.5,3V4.376c-.387.292-.649.5-.925.713A1.5,1.5,0,0,0,0,6.27V6.6L3,8.77V3H13V8.77L16,6.6V6.27a1.5,1.5,0,0,0-.575-1.18Z" transform="translate(0 0.003)"/></svg>