<svg xmlns="http://www.w3.org/2000/svg" width="17.074" height="17.074" viewBox="0 0 17.074 17.074"><path d="M17.806,10.122a.854.854,0,1,1,.854-.854A.854.854,0,0,1,17.806,10.122ZM16.1,13.537A2.561,2.561,0,1,0,13.537,16.1,2.561,2.561,0,0,0,16.1,13.537Zm-6.83,0a4.269,4.269,0,1,1,4.269,4.269A4.269,4.269,0,0,1,9.269,13.537ZM6.707,17.806a2.561,2.561,0,0,0,2.561,2.561h8.537a2.561,2.561,0,0,0,2.561-2.561V9.269a2.561,2.561,0,0,0-2.561-2.561H9.269A2.561,2.561,0,0,0,6.707,9.269ZM9.269,5h8.537a4.269,4.269,0,0,1,4.269,4.269v8.537a4.269,4.269,0,0,1-4.269,4.269H9.269A4.269,4.269,0,0,1,5,17.806V9.269A4.269,4.269,0,0,1,9.269,5Z" transform="translate(-5 -5)" fill="#fff" fill-rule="evenodd"/></svg>