<svg xmlns="http://www.w3.org/2000/svg" width="17.07" height="17.07" viewBox="0 0 17.07 17.07"><defs><style>.a{fill:#fff;}</style></defs><path class="a" d="M8.535,8a8.535,8.535,0,1,0,8.535,8.535A8.534,8.534,0,0,0,8.535,8Zm4.192,5.847-1.4,6.6c-.1.468-.382.582-.771.361L8.421,19.237l-1.029.991a.539.539,0,0,1-.43.21l.151-2.172,3.954-3.572c.172-.151-.038-.237-.265-.086L5.916,17.684,3.81,17.027c-.458-.145-.468-.458.1-.678l8.229-3.173C12.517,13.038,12.851,13.269,12.727,13.847Z" transform="translate(0 -8)"/></svg>