<svg xmlns="http://www.w3.org/2000/svg" width="20.996" height="17.035" viewBox="0 0 20.996 17.035"><path d="M18.824,4.259v.554A12.134,12.134,0,0,1,6.6,17.035,12.469,12.469,0,0,1,0,15.118a8.206,8.206,0,0,0,1.022.043A8.57,8.57,0,0,0,6.346,13.33a4.271,4.271,0,0,1-4-2.981,5.218,5.218,0,0,0,.809.085,5.286,5.286,0,0,0,1.15-.128A4.3,4.3,0,0,1,.852,6.09V6.047A4.2,4.2,0,0,0,2.811,6.6,4.3,4.3,0,0,1,.894,3.024a4.154,4.154,0,0,1,.6-2.172,12.184,12.184,0,0,0,8.816,4.429,3.867,3.867,0,0,1-.128-.98,4.338,4.338,0,0,1,7.5-2.939A8.4,8.4,0,0,0,20.4.341a4.521,4.521,0,0,1-1.874,2.385A8.187,8.187,0,0,0,21,2.044a10.685,10.685,0,0,1-2.172,2.215Z" fill="#fff"/></svg>