<svg xmlns="http://www.w3.org/2000/svg" width="16.12" height="16.12" viewBox="0 0 16.12 16.12"><defs><style>.a{fill:#fff;opacity:0.9;}</style></defs><path class="a" d="M13.706,34.342a7.991,7.991,0,0,0-12.572,9.64L0,48.12l4.235-1.112a7.964,7.964,0,0,0,3.818.972h0a7.937,7.937,0,0,0,5.649-13.637ZM8.056,46.634a6.628,6.628,0,0,1-3.382-.925l-.241-.144-2.512.658.669-2.45-.158-.252a6.652,6.652,0,1,1,12.338-3.53A6.714,6.714,0,0,1,8.056,46.634ZM11.7,41.661c-.2-.1-1.18-.583-1.364-.648s-.317-.1-.45.1-.515.648-.633.784-.234.151-.432.05A5.433,5.433,0,0,1,6.1,39.574c-.205-.353.205-.327.587-1.09a.37.37,0,0,0-.018-.349c-.05-.1-.45-1.083-.615-1.482s-.327-.335-.45-.342-.248-.007-.381-.007a.739.739,0,0,0-.533.248,2.243,2.243,0,0,0-.7,1.666,3.91,3.91,0,0,0,.813,2.065A8.919,8.919,0,0,0,8.218,43.3a3.906,3.906,0,0,0,2.4.5,2.044,2.044,0,0,0,1.346-.95,1.669,1.669,0,0,0,.115-.95C12.029,41.809,11.9,41.758,11.7,41.661Z" transform="translate(0 -32)"/></svg>