<?xml version="1.0" encoding="UTF-8"?>
<svg width="24px" height="24px" viewBox="0 0 24 24" version="1.1" xmlns="http://www.w3.org/2000/svg" xmlns:xlink="http://www.w3.org/1999/xlink">
    <title>icon-notification-on</title>
    <g id="icon-notification-on" stroke="none" stroke-width="1" fill="none" fill-rule="evenodd">
        <path d="M18.75,18.203125 L18.75,17.3828125 L17.1484375,15.7421875 L17.1484375,11.2890625 C17.1484375,10.0651042 16.7643229,8.97786458 15.9960938,8.02734375 C15.2278646,7.07682292 14.2578125,6.45833333 13.0859375,6.171875 L13.0859375,6.171875 L13.0859375,5.5859375 C13.0859375,5.24739583 12.9752604,4.9609375 12.7539062,4.7265625 C12.5325521,4.4921875 12.2395833,4.375 11.875,4.375 C11.5104167,4.375 11.2174479,4.4921875 10.9960938,4.7265625 C10.7747396,4.9609375 10.6640625,5.24739583 10.6640625,5.5859375 L10.6640625,5.5859375 L10.6640625,6.171875 C9.4921875,6.45833333 8.52213542,7.07682292 7.75390625,8.02734375 C6.98567708,8.97786458 6.6015625,10.0651042 6.6015625,11.2890625 L6.6015625,11.2890625 L6.6015625,15.7421875 L5,17.3828125 L5,18.203125 L18.75,18.203125 Z M11.875,20.625 C12.3177083,20.625 12.6953125,20.4557292 13.0078125,20.1171875 C13.3203125,19.8046875 13.4765625,19.4270833 13.4765625,18.984375 L13.4765625,18.984375 L10.2734375,18.984375 C10.2734375,19.4270833 10.4296875,19.8111979 10.7421875,20.1367188 C11.0546875,20.4622396 11.4322917,20.625 11.875,20.625 Z" id="" fill="#0EFFA3" fill-rule="nonzero"></path>
    </g>
</svg>