<?xml version="1.0" encoding="UTF-8"?>
<svg width="24px" height="24px" viewBox="0 0 24 24" version="1.1" xmlns="http://www.w3.org/2000/svg" xmlns:xlink="http://www.w3.org/1999/xlink">
    <title>icon-notification-off</title>
    <g id="icon-notification-off" stroke="none" stroke-width="1" fill="none" fill-rule="evenodd" fill-opacity="0.5">
        <path d="M18.75,18.203125 L18.75,17.3828125 L17.1484375,15.7421875 L17.1484375,11.2890625 C17.1484375,10.0651042 16.7643229,8.97786458 15.9960938,8.02734375 C15.2278646,7.07682292 14.2578125,6.45833333 13.0859375,6.171875 L13.0859375,6.171875 L13.0859375,5.5859375 C13.0859375,5.24739583 12.9752604,4.9609375 12.7539062,4.7265625 C12.5325521,4.4921875 12.2395833,4.375 11.875,4.375 C11.5104167,4.375 11.2109375,4.4921875 10.9765625,4.7265625 C10.7682292,4.9609375 10.6640625,5.24739583 10.6640625,5.5859375 L10.6640625,5.5859375 L10.6640625,6.171875 C9.4921875,6.45833333 8.52213542,7.07682292 7.75390625,8.02734375 C6.98567708,8.97786458 6.6015625,10.0651042 6.6015625,11.2890625 L6.6015625,11.2890625 L6.6015625,15.7421875 L5,17.3828125 L5,18.203125 L18.75,18.203125 Z M16.5625,16.953125 L7.1875,16.953125 L7.5,16.640625 L7.8515625,16.25 L7.8515625,11.2890625 C7.8515625,10.3515625 8.13802083,9.51171875 8.7109375,8.76953125 C9.28385417,8.02734375 10.0130208,7.56510417 10.8984375,7.3828125 L10.8984375,7.3828125 L11.8359375,7.1875 L11.9140625,7.1875 C12.0963542,7.1875 12.4088542,7.25260417 12.8515625,7.3828125 C13.7369792,7.56510417 14.4661458,8.02734375 15.0390625,8.76953125 C15.6119792,9.51171875 15.8984375,10.3515625 15.8984375,11.2890625 L15.8984375,11.2890625 L15.8984375,16.25 L16.25,16.640625 L16.5625,16.953125 Z M11.875,20.625 C12.3177083,20.625 12.6953125,20.4622396 13.0078125,20.1367188 C13.3203125,19.8111979 13.4765625,19.4270833 13.4765625,18.984375 L13.4765625,18.984375 L10.2734375,18.984375 C10.2734375,19.4270833 10.4296875,19.8111979 10.7421875,20.1367188 C11.0546875,20.4622396 11.4322917,20.625 11.875,20.625 Z" id="" fill="#FFFFFF" fill-rule="nonzero"></path>
    </g>
</svg>