<svg xmlns="http://www.w3.org/2000/svg" width="21.072" height="24.078" viewBox="0 0 21.072 24.078"><defs><style>.a{fill:#0effa3;}</style></defs><path class="a" d="M16.553,15.048a4.5,4.5,0,0,0-3.376,1.519L8.686,13.76a4.522,4.522,0,0,0,0-3.442L13.177,7.51a4.477,4.477,0,1,0-.8-1.274L7.886,9.043a4.512,4.512,0,1,0,0,5.991l4.491,2.807a4.458,4.458,0,0,0-.339,1.721,4.515,4.515,0,1,0,4.51-4.515Zm0-13.544a3.01,3.01,0,1,1-3.01,3.01A3.012,3.012,0,0,1,16.553,1.5ZM4.515,15.048a3.01,3.01,0,1,1,3.01-3.01A3.012,3.012,0,0,1,4.515,15.048Zm12.039,7.524a3.01,3.01,0,1,1,3.01-3.01A3.012,3.012,0,0,1,16.553,22.573Z"/></svg>