<svg xmlns="http://www.w3.org/2000/svg" width="27.05" height="20.287" viewBox="0 0 27.05 20.287"><defs><style>.a{fill:#0effa3;}</style></defs><path class="a" d="M8.453,72.088a.848.848,0,0,1,.845-.845h7.608V66.282a.422.422,0,0,1,.719-.3l7.481,7.56a.845.845,0,0,1,0,1.2L17.625,82.3a.421.421,0,0,1-.719-.3V77.039H9.3a.848.848,0,0,1-.845-.845v-4.1m-1.691,0v4.1A2.537,2.537,0,0,0,9.3,78.729h5.917V82a2.112,2.112,0,0,0,3.6,1.5L26.3,75.94a2.538,2.538,0,0,0,0-3.593l-7.486-7.56a2.112,2.112,0,0,0-3.6,1.5v3.27H9.3A2.54,2.54,0,0,0,6.762,72.088ZM0,66.536V81.751a2.537,2.537,0,0,0,2.536,2.536H9.51a.636.636,0,0,0,.634-.634v-.423A.636.636,0,0,0,9.51,82.6H2.536a.848.848,0,0,1-.845-.845V66.536a.848.848,0,0,1,.845-.845H9.51a.636.636,0,0,0,.634-.634v-.423A.636.636,0,0,0,9.51,64H2.536A2.537,2.537,0,0,0,0,66.536Z" transform="translate(0 -64)"/></svg>