<svg xmlns="http://www.w3.org/2000/svg" width="24.078" height="24.078" viewBox="0 0 24.078 24.078"><defs><style>.a{fill:#0effa3;}</style></defs><path class="a" d="M23.356,13.435a3.773,3.773,0,0,0,.722-2.361,3.475,3.475,0,0,0-3.42-3.413h-3.3a6.839,6.839,0,0,0,.973-3.283c0-2.747-1.1-4.377-3.9-4.377-1.411,0-1.934,1.783-2.2,3.161a4,4,0,0,1-.777,2.067c-1.108,1.108-2.8,3.8-3.817,4.347a1.93,1.93,0,0,1-.378.1,1.5,1.5,0,0,0-1.239-.651H1.5a1.5,1.5,0,0,0-1.5,1.5V22.573a1.5,1.5,0,0,0,1.5,1.5H6.019a1.5,1.5,0,0,0,1.5-1.5v-.411c1.528,0,4.735,1.916,8.345,1.915.259,0,1.771,0,1.929,0,2.788,0,4.338-1.688,4.248-4.223A3.9,3.9,0,0,0,22.9,16.7,4.4,4.4,0,0,0,23.356,13.435ZM1.5,22.573V10.534H6.019V22.573ZM21.445,13c.752.548.752,2.805-.264,3.323a2.249,2.249,0,0,1-.706,2.915c.39,2.471-.892,3.32-2.69,3.338-.156,0-1.752,0-1.915,0-3.43,0-6.336-1.915-8.345-1.915V11.081c1.773,0,3.4-3.195,4.993-4.788,1.436-1.436.958-3.83,1.915-4.788,2.394,0,2.394,1.67,2.394,2.873,0,1.984-1.436,2.873-1.436,4.788h5.267a1.978,1.978,0,0,1,1.915,1.915A1.777,1.777,0,0,1,21.445,13ZM4.891,20.315a1.129,1.129,0,1,1-1.129-1.129A1.129,1.129,0,0,1,4.891,20.315Z"/></svg>