<svg xmlns="http://www.w3.org/2000/svg" width="25.117" height="20.5" viewBox="0 0 25.117 20.5"><defs><style>.a{fill:#5da8dc;stroke:#5da8dc;stroke-width:0.5px;}</style></defs><g transform="translate(0.25 0.25)"><path class="a" d="M16.448,0V0H17.6l.422.084A4.511,4.511,0,0,1,18.79.3a5.447,5.447,0,0,1,.666.311,6.333,6.333,0,0,1,.584.362,3.593,3.593,0,0,1,.466.386.646.646,0,0,0,.637.107,8.521,8.521,0,0,0,.932-.277q.5-.178.988-.4t.595-.282L23.769.44l0-.007L23.8.422l.022-.011L23.84.4l.022-.011,0-.007.007,0,.007,0,0-.007L23.907.36l.022,0,0,.033-.007.033-.011.033L23.9.488l-.011.022-.011.022-.011.033a.772.772,0,0,0-.022.089,3.724,3.724,0,0,1-.211.444,5.552,5.552,0,0,1-.5.788,3.875,3.875,0,0,1-.537.6q-.24.206-.317.289a.953.953,0,0,1-.189.155l-.111.073-.022.011-.022.011,0,.007-.007,0-.007,0,0,.007-.022.011-.022.011,0,.007-.007,0-.007,0,0,.007,0,.007-.007,0-.007,0,0,.007h.111l.622-.133a11.122,11.122,0,0,0,1.188-.322l.6-.2.067-.022.033-.011.022-.011.022-.011.022-.011.022-.011.044-.007.044,0V2.42l-.011,0-.011.007,0,.007-.007,0-.007,0,0,.007,0,.007-.007,0-.007,0,0,.007,0,.007-.007,0-.011.022-.011.022-.007,0-.282.377a3.12,3.12,0,0,1-.3.377q-.022.007-.062.067a6.362,6.362,0,0,1-.471.5,11.172,11.172,0,0,1-.848.77,1.051,1.051,0,0,0-.422.835q-.007.493-.051,1.114t-.166,1.343a16.011,16.011,0,0,1-.377,1.632,14.833,14.833,0,0,1-.622,1.776,13.835,13.835,0,0,1-.766,1.554q-.4.688-.733,1.165t-.677.9q-.344.422-.87.95t-.577.577q-.051.049-.435.364t-.821.635a9.5,9.5,0,0,1-.8.526q-.366.211-.883.482a10.511,10.511,0,0,1-1.114.506q-.6.233-1.265.433a11.557,11.557,0,0,1-1.287.311q-.622.111-1.41.189l-.788.078V20H7.037v-.011l-.189-.011q-.189-.011-.311-.022t-.921-.122q-.8-.111-1.254-.222T3.008,19.19a13.175,13.175,0,0,1-1.538-.628q-.637-.315-.8-.4t-.36-.2l-.2-.122,0-.007-.007,0-.007,0,0-.007L.067,17.8l-.022-.011,0-.007-.007,0-.007,0,0-.007,0-.007-.007,0H0v-.044l.022,0,.022.007.1.011q.1.011.544.033t.943,0a9.926,9.926,0,0,0,1.021-.1A11.5,11.5,0,0,0,3.885,17.4a9.1,9.1,0,0,0,1.305-.448q.593-.262.844-.391a8.213,8.213,0,0,0,.759-.471l.511-.344,0-.007.007,0,.007,0,0-.007,0-.007.007,0,.007,0,0-.007L7.37,15.7l.022,0,0-.022.007-.022.007,0,0-.007-.178-.011L6.892,15.6a3.337,3.337,0,0,1-.522-.1,5.007,5.007,0,0,1-.766-.266,5.9,5.9,0,0,1-.8-.422,3.933,3.933,0,0,1-.562-.406q-.171-.16-.444-.453a4.491,4.491,0,0,1-.471-.606,5.445,5.445,0,0,1-.382-.717l-.184-.4L2.752,12.2l-.011-.033-.007-.022,0-.022.033,0,.033.007.244.033a5.426,5.426,0,0,0,.766.022,5.929,5.929,0,0,0,.721-.044q.2-.033.244-.044l.044-.011.055-.011.055-.011,0-.007.007,0,.007,0,0-.007-.044-.011-.044-.011-.044-.011L4.772,12l-.044-.011q-.044-.011-.155-.044t-.6-.244a4.583,4.583,0,0,1-.777-.411,5.365,5.365,0,0,1-.55-.437,6.282,6.282,0,0,1-.57-.617,4.44,4.44,0,0,1-.555-.877A5.332,5.332,0,0,1,1.154,8.4a5.153,5.153,0,0,1-.16-.921l-.04-.466.022,0L1,7.026l.022.011.022.011.022.011.022.011.344.155a4.341,4.341,0,0,0,.855.266q.511.111.61.122l.1.011h.2l0-.007-.007,0-.007,0,0-.007,0-.007-.007,0-.007,0,0-.007L3.13,7.569l-.022-.011,0-.007-.007,0-.007,0,0-.007-.022-.011-.022-.011,0-.007-.191-.142A2.911,2.911,0,0,1,2.464,7q-.2-.222-.4-.466a3.6,3.6,0,0,1-.355-.522,6.323,6.323,0,0,1-.329-.706,5.011,5.011,0,0,1-.26-.859,4.89,4.89,0,0,1-.1-.855,5.381,5.381,0,0,1,.022-.721A4.715,4.715,0,0,1,1.176,2.2a5.275,5.275,0,0,1,.289-.8L1.654.977,1.665.943,1.676.91l.007,0,0-.007,0-.007.007,0,.007,0,0,.007,0,.007.007,0,.007,0,0,.007,0,.007.007,0,.011.022.011.022.007,0,0,.007.3.333q.3.333.71.744a4.174,4.174,0,0,0,.455.426.325.325,0,0,1,.111.1,4.531,4.531,0,0,0,.444.393q.377.311.988.721t1.354.81a13.212,13.212,0,0,0,1.6.721q.855.322,1.2.422t1.176.255q.832.155,1.254.2t.577.051l.155,0,0-.033L12.087,6.1l-.044-.277A5.216,5.216,0,0,1,12,5.05a5.094,5.094,0,0,1,.078-.921,5.457,5.457,0,0,1,.233-.855,4.565,4.565,0,0,1,.3-.695,6.834,6.834,0,0,1,.4-.593A4.786,4.786,0,0,1,13.64,1.3a4.668,4.668,0,0,1,.888-.633A5.772,5.772,0,0,1,15.45.244a4.292,4.292,0,0,1,.71-.189A2.469,2.469,0,0,0,16.448,0Z"/></g></svg>