<svg xmlns="http://www.w3.org/2000/svg" fill="rgb(14, 255, 163)" viewBox="0 0 93.86626445449974 100"><rect height="100%" width="100%" x="0" y="0" fill="none"></rect><g><g fill="rgb(14, 255, 163)" transform="translate(0 0) scale(0.05027652086475616)" style="cursor: pointer;"><svg xmlns="http://www.w3.org/2000/svg" fill="rgb(14, 255, 163)" width="1867" height="1989" viewBox="0 0 1867 1989"><path d="M195.386 1.014 C 194.849 1.551,190.830 2.254,186.455 2.576 C 182.080 2.898,176.250 3.751,173.500 4.471 C 170.750 5.191,166.475 6.299,164.000 6.933 C 154.665 9.322,144.895 12.537,140.669 14.611 C 139.112 15.375,137.367 16.000,136.792 16.000 C 136.217 16.000,132.540 17.522,128.623 19.381 C 124.705 21.241,120.825 23.043,120.000 23.385 C 106.631 28.927,78.225 50.050,62.763 65.947 C 53.168 75.812,38.000 93.930,38.000 95.526 C 38.000 95.798,36.510 98.153,34.688 100.760 C 32.866 103.367,31.062 106.175,30.679 107.000 C 30.296 107.825,29.043 110.075,27.893 112.000 C 23.533 119.304,16.669 133.580,14.911 139.000 C 14.465 140.375,12.913 144.650,11.463 148.500 C 10.013 152.350,8.423 157.443,7.931 159.817 C 7.438 162.191,6.814 164.492,6.543 164.930 C 6.273 165.368,4.802 171.751,3.276 179.113 L 0.500 192.500 0.500 776.000 C 0.500 1245.020,0.750 1360.677,1.775 1365.500 C 2.476 1368.800,3.641 1374.650,4.364 1378.500 C 5.585 1384.997,6.619 1388.868,9.173 1396.500 C 9.725 1398.150,10.570 1401.104,11.052 1403.065 C 11.533 1405.027,12.616 1407.952,13.457 1409.565 C 14.299 1411.179,14.990 1413.026,14.994 1413.669 C 14.997 1414.312,15.647 1416.112,16.437 1417.669 C 17.228 1419.226,19.604 1424.100,21.717 1428.500 C 25.016 1435.368,29.764 1444.049,34.291 1451.487 C 34.956 1452.581,39.630 1458.881,44.678 1465.487 C 57.698 1482.529,75.129 1499.968,88.154 1508.982 C 107.124 1522.110,117.562 1528.102,133.500 1535.012 C 136.250 1536.205,139.400 1537.577,140.500 1538.063 C 143.301 1539.299,151.106 1542.036,153.500 1542.621 C 154.600 1542.890,157.750 1543.738,160.500 1544.505 C 174.461 1548.399,178.559 1549.149,201.500 1552.007 C 206.177 1552.590,239.404 1552.987,281.487 1552.963 C 333.905 1552.934,353.576 1553.228,353.849 1554.046 C 354.055 1554.664,353.540 1556.594,352.704 1558.335 C 351.168 1561.534,349.962 1564.603,345.959 1575.500 C 344.747 1578.800,343.135 1582.694,342.378 1584.154 C 341.620 1585.614,341.000 1587.570,341.000 1588.500 C 341.000 1589.430,340.387 1591.386,339.639 1592.846 C 338.890 1594.306,337.765 1596.963,337.139 1598.750 C 336.512 1600.537,335.488 1603.463,334.861 1605.250 C 334.235 1607.037,333.110 1609.694,332.361 1611.154 C 331.613 1612.614,331.000 1614.666,331.000 1615.713 C 331.000 1616.761,330.339 1618.491,329.532 1619.559 C 328.724 1620.626,328.047 1622.175,328.026 1623.000 C 328.005 1623.825,327.330 1625.760,326.527 1627.301 C 325.723 1628.841,324.637 1631.541,324.112 1633.301 C 323.588 1635.060,322.187 1638.975,321.000 1642.000 C 319.813 1645.025,318.412 1648.940,317.888 1650.699 C 317.363 1652.459,316.277 1655.159,315.473 1656.699 C 314.670 1658.240,313.995 1660.175,313.974 1661.000 C 313.953 1661.825,313.276 1663.374,312.468 1664.441 C 311.661 1665.509,311.000 1667.181,311.000 1668.157 C 311.000 1669.133,310.356 1671.410,309.570 1673.216 C 308.783 1675.022,307.155 1679.200,305.952 1682.500 C 304.749 1685.800,303.296 1689.397,302.722 1690.493 C 302.149 1691.589,301.340 1693.839,300.925 1695.493 C 300.509 1697.147,298.293 1703.225,296.000 1709.000 C 293.707 1714.775,291.491 1720.853,291.075 1722.507 C 290.660 1724.161,289.852 1726.411,289.279 1727.507 C 286.356 1733.103,283.997 1738.924,283.968 1740.610 C 283.951 1741.649,283.276 1743.374,282.468 1744.441 C 281.661 1745.509,281.000 1747.335,281.000 1748.500 C 281.000 1749.665,280.339 1751.491,279.532 1752.559 C 278.724 1753.626,278.034 1755.175,277.998 1756.000 C 277.962 1756.825,277.063 1759.300,276.000 1761.500 C 274.937 1763.700,274.038 1766.400,274.002 1767.500 C 273.966 1768.600,273.276 1770.374,272.468 1771.441 C 271.661 1772.509,271.000 1774.321,271.000 1775.469 C 271.000 1776.616,270.392 1778.443,269.649 1779.527 C 268.906 1780.612,267.971 1782.850,267.571 1784.500 C 267.171 1786.150,266.130 1788.292,265.258 1789.260 C 263.798 1790.880,263.857 1791.219,265.994 1793.493 C 267.271 1794.853,269.187 1796.242,270.252 1796.580 C 271.317 1796.918,274.058 1798.444,276.344 1799.971 C 278.630 1801.499,281.512 1803.060,282.750 1803.442 C 283.988 1803.823,285.000 1804.510,285.000 1804.970 C 285.000 1805.429,286.238 1806.316,287.750 1806.942 C 291.304 1808.413,296.360 1811.136,297.000 1811.925 C 297.275 1812.264,298.625 1813.099,300.000 1813.781 C 301.375 1814.463,303.850 1815.910,305.500 1816.996 C 307.150 1818.082,309.400 1819.377,310.500 1819.875 C 312.492 1820.776,327.145 1829.159,330.000 1831.031 C 330.825 1831.572,332.625 1832.565,334.000 1833.237 C 335.375 1833.909,336.734 1834.778,337.020 1835.167 C 337.307 1835.556,338.657 1836.360,340.020 1836.952 C 341.384 1837.545,343.850 1838.909,345.500 1839.983 C 347.150 1841.057,349.850 1842.617,351.500 1843.448 C 353.150 1844.280,355.383 1845.531,356.462 1846.230 C 360.023 1848.535,366.451 1852.382,369.500 1854.034 C 377.928 1858.599,381.886 1860.862,385.799 1863.351 C 388.163 1864.856,391.088 1866.524,392.299 1867.058 C 393.509 1867.592,395.850 1868.909,397.500 1869.983 C 399.150 1871.057,401.850 1872.625,403.500 1873.466 C 405.150 1874.307,407.850 1875.890,409.500 1876.983 C 411.150 1878.076,413.616 1879.455,414.980 1880.048 C 416.343 1880.640,417.693 1881.439,417.980 1881.823 C 418.266 1882.206,420.975 1883.789,424.000 1885.339 C 427.025 1886.889,430.850 1889.021,432.500 1890.076 C 434.150 1891.131,436.738 1892.489,438.250 1893.095 C 439.762 1893.700,441.000 1894.558,441.000 1895.000 C 441.000 1895.442,442.238 1896.300,443.750 1896.905 C 445.262 1897.511,447.850 1898.890,449.500 1899.971 C 451.150 1901.052,453.850 1902.625,455.500 1903.466 C 457.150 1904.307,459.850 1905.892,461.500 1906.987 C 463.150 1908.082,465.175 1909.275,466.000 1909.638 C 466.825 1910.000,471.162 1912.480,475.639 1915.149 C 480.115 1917.817,484.030 1920.000,484.339 1920.000 C 484.647 1920.000,486.877 1921.334,489.293 1922.965 C 491.710 1924.596,494.770 1926.403,496.094 1926.980 C 497.417 1927.557,499.850 1928.909,501.500 1929.983 C 503.150 1931.057,505.850 1932.625,507.500 1933.466 C 509.150 1934.307,511.850 1935.882,513.500 1936.966 C 515.150 1938.050,517.850 1939.615,519.500 1940.445 C 523.817 1942.615,531.860 1947.213,536.500 1950.164 C 538.700 1951.563,541.512 1953.029,542.750 1953.421 C 543.987 1953.814,545.000 1954.510,545.000 1954.970 C 545.000 1955.429,546.237 1956.316,547.750 1956.942 C 551.304 1958.413,556.360 1961.136,557.000 1961.925 C 557.275 1962.264,558.625 1963.099,560.000 1963.781 C 561.375 1964.463,563.850 1965.910,565.500 1966.996 C 567.150 1968.082,569.400 1969.377,570.500 1969.875 C 572.492 1970.776,587.145 1979.159,590.000 1981.031 C 590.825 1981.572,592.625 1982.565,594.000 1983.237 C 595.375 1983.909,596.725 1984.729,597.000 1985.058 C 598.274 1986.584,604.611 1989.000,607.338 1989.000 C 610.308 1989.000,615.531 1986.769,621.500 1982.949 C 623.150 1981.894,625.491 1980.592,626.701 1980.058 C 627.912 1979.524,630.837 1977.839,633.201 1976.314 C 639.135 1972.486,640.126 1971.914,646.714 1968.510 C 649.896 1966.866,652.725 1965.251,653.000 1964.921 C 653.549 1964.264,662.744 1958.905,667.500 1956.472 C 669.150 1955.627,671.850 1954.057,673.500 1952.983 C 675.150 1951.909,677.491 1950.592,678.701 1950.058 C 679.912 1949.524,682.837 1947.839,685.201 1946.314 C 691.772 1942.075,693.299 1941.176,695.906 1940.008 C 697.230 1939.416,700.290 1937.596,702.707 1935.965 C 705.123 1934.334,707.505 1933.000,708.000 1933.000 C 708.495 1933.000,710.877 1931.666,713.293 1930.035 C 715.710 1928.404,718.770 1926.597,720.094 1926.020 C 721.417 1925.443,723.850 1924.091,725.500 1923.017 C 727.150 1921.943,729.850 1920.383,731.500 1919.552 C 733.150 1918.720,735.383 1917.469,736.462 1916.770 C 742.201 1913.056,754.273 1906.072,759.500 1903.445 C 761.150 1902.615,763.850 1901.050,765.500 1899.966 C 767.150 1898.882,769.850 1897.307,771.500 1896.466 C 773.150 1895.625,775.850 1894.057,777.500 1892.983 C 779.150 1891.909,781.583 1890.557,782.906 1889.980 C 784.230 1889.403,787.290 1887.596,789.707 1885.965 C 792.123 1884.334,794.290 1883.000,794.521 1883.000 C 794.753 1883.000,798.443 1880.925,802.721 1878.390 C 807.000 1875.854,811.400 1873.372,812.500 1872.875 C 813.600 1872.377,815.850 1871.076,817.500 1869.983 C 819.150 1868.890,821.850 1867.307,823.500 1866.466 C 825.150 1865.625,827.850 1864.052,829.500 1862.971 C 831.150 1861.890,833.737 1860.511,835.250 1859.905 C 836.762 1859.300,838.000 1858.442,838.000 1858.000 C 838.000 1857.558,839.237 1856.704,840.750 1856.102 C 843.835 1854.876,851.811 1850.418,858.238 1846.328 C 862.206 1843.803,865.101 1842.159,873.999 1837.380 C 875.924 1836.346,877.733 1835.191,878.020 1834.813 C 878.306 1834.434,879.657 1833.648,881.020 1833.065 C 882.384 1832.482,884.175 1831.578,885.000 1831.056 C 885.825 1830.534,888.677 1828.845,891.338 1827.303 C 893.999 1825.762,897.374 1823.748,898.838 1822.829 C 900.302 1821.910,903.975 1819.889,907.000 1818.339 C 910.025 1816.789,912.725 1815.236,913.000 1814.889 C 913.275 1814.541,915.873 1812.962,918.774 1811.379 C 921.674 1809.795,925.724 1807.498,927.774 1806.274 C 929.823 1805.049,932.400 1803.576,933.500 1803.000 C 934.600 1802.424,937.300 1800.875,939.500 1799.558 C 948.953 1793.900,949.884 1793.585,951.858 1795.372 C 952.848 1796.267,953.934 1797.000,954.271 1797.000 C 954.609 1797.000,959.887 1799.925,966.000 1803.500 C 972.113 1807.075,977.292 1810.000,977.508 1810.000 C 977.723 1810.000,979.877 1811.334,982.293 1812.965 C 984.710 1814.596,987.770 1816.403,989.094 1816.980 C 990.417 1817.557,992.850 1818.909,994.500 1819.983 C 996.150 1821.057,998.850 1822.625,1000.500 1823.466 C 1002.150 1824.307,1004.850 1825.857,1006.500 1826.909 C 1009.242 1828.657,1013.515 1831.073,1023.000 1836.239 C 1024.925 1837.287,1027.850 1839.011,1029.500 1840.069 C 1031.150 1841.128,1033.737 1842.489,1035.250 1843.095 C 1036.763 1843.700,1038.000 1844.558,1038.000 1845.000 C 1038.000 1845.442,1039.237 1846.300,1040.750 1846.905 C 1042.263 1847.511,1044.850 1848.890,1046.500 1849.971 C 1048.150 1851.052,1050.850 1852.638,1052.500 1853.495 C 1057.380 1856.030,1060.097 1857.697,1061.284 1858.884 C 1061.898 1859.498,1062.962 1860.000,1063.650 1860.000 C 1064.337 1860.000,1066.835 1861.300,1069.200 1862.890 C 1073.569 1865.826,1082.459 1870.988,1087.000 1873.227 C 1088.375 1873.905,1089.734 1874.778,1090.020 1875.167 C 1090.307 1875.556,1091.657 1876.356,1093.020 1876.945 C 1096.848 1878.596,1106.317 1884.039,1108.079 1885.601 C 1108.947 1886.370,1109.946 1887.000,1110.298 1887.000 C 1110.650 1887.000,1114.748 1889.250,1119.404 1892.000 C 1124.060 1894.750,1128.201 1897.000,1128.606 1897.000 C 1129.011 1897.000,1130.053 1897.639,1130.921 1898.421 C 1131.790 1899.203,1134.750 1901.023,1137.500 1902.466 C 1140.250 1903.910,1143.850 1905.963,1145.500 1907.030 C 1147.150 1908.097,1149.616 1909.455,1150.980 1910.048 C 1152.343 1910.640,1153.693 1911.444,1153.980 1911.833 C 1154.266 1912.222,1155.625 1913.112,1157.000 1913.810 C 1161.285 1915.986,1164.125 1917.725,1165.284 1918.884 C 1165.898 1919.498,1166.962 1920.000,1167.650 1920.000 C 1168.337 1920.000,1170.835 1921.300,1173.200 1922.890 C 1177.569 1925.826,1186.459 1930.988,1191.000 1933.227 C 1192.375 1933.905,1193.734 1934.778,1194.020 1935.167 C 1194.307 1935.556,1195.657 1936.360,1197.020 1936.952 C 1198.384 1937.545,1200.850 1938.909,1202.500 1939.983 C 1204.150 1941.057,1206.850 1942.617,1208.500 1943.448 C 1210.150 1944.280,1212.175 1945.406,1213.000 1945.951 C 1216.264 1948.108,1236.907 1960.000,1237.388 1960.000 C 1237.669 1960.000,1239.877 1961.334,1242.293 1962.965 C 1244.710 1964.596,1247.770 1966.403,1249.094 1966.980 C 1250.417 1967.557,1252.850 1968.909,1254.500 1969.983 C 1256.150 1971.057,1258.850 1972.625,1260.500 1973.466 C 1262.150 1974.307,1264.850 1975.864,1266.500 1976.925 C 1268.150 1977.987,1271.075 1979.703,1273.000 1980.740 C 1274.925 1981.777,1279.098 1984.060,1282.273 1985.813 C 1289.336 1989.713,1293.648 1989.878,1299.068 1986.457 C 1301.284 1985.058,1304.088 1983.476,1305.299 1982.942 C 1306.509 1982.408,1308.850 1981.076,1310.500 1979.983 C 1312.150 1978.890,1314.850 1977.307,1316.500 1976.466 C 1318.150 1975.625,1320.850 1974.052,1322.500 1972.971 C 1324.150 1971.890,1326.737 1970.511,1328.250 1969.905 C 1329.762 1969.300,1331.000 1968.442,1331.000 1968.000 C 1331.000 1967.558,1332.237 1966.708,1333.750 1966.112 C 1335.263 1965.516,1337.175 1964.603,1338.000 1964.082 C 1341.186 1962.070,1356.576 1953.264,1358.000 1952.638 C 1358.825 1952.275,1360.850 1951.082,1362.500 1949.987 C 1364.150 1948.892,1366.850 1947.307,1368.500 1946.466 C 1370.150 1945.625,1372.850 1944.057,1374.500 1942.983 C 1376.150 1941.909,1378.491 1940.592,1379.701 1940.058 C 1380.912 1939.524,1383.837 1937.839,1386.201 1936.314 C 1391.972 1932.591,1393.494 1931.709,1400.500 1928.028 C 1403.800 1926.294,1407.850 1924.010,1409.500 1922.953 C 1411.150 1921.895,1413.400 1920.550,1414.500 1919.963 C 1415.600 1919.377,1418.300 1917.825,1420.500 1916.514 C 1422.700 1915.203,1426.862 1912.883,1429.750 1911.357 C 1432.638 1909.831,1435.000 1908.270,1435.000 1907.889 C 1435.000 1907.508,1436.237 1906.704,1437.750 1906.102 C 1441.256 1904.709,1450.246 1899.622,1455.800 1895.890 C 1458.165 1894.300,1460.505 1893.000,1461.000 1893.000 C 1461.495 1893.000,1463.877 1891.666,1466.293 1890.035 C 1468.710 1888.404,1471.770 1886.597,1473.094 1886.020 C 1474.417 1885.443,1476.850 1884.091,1478.500 1883.017 C 1480.150 1881.943,1482.850 1880.383,1484.500 1879.552 C 1486.150 1878.720,1488.175 1877.594,1489.000 1877.049 C 1491.452 1875.429,1512.373 1863.379,1514.000 1862.650 C 1514.825 1862.280,1516.850 1861.082,1518.500 1859.987 C 1520.150 1858.892,1522.850 1857.307,1524.500 1856.466 C 1526.150 1855.625,1528.850 1854.057,1530.500 1852.983 C 1532.150 1851.909,1534.583 1850.557,1535.906 1849.980 C 1537.230 1849.403,1540.290 1847.596,1542.707 1845.965 C 1545.123 1844.334,1547.353 1843.000,1547.661 1843.000 C 1547.970 1843.000,1551.885 1840.817,1556.361 1838.149 C 1560.838 1835.480,1565.175 1833.000,1566.000 1832.638 C 1566.825 1832.275,1568.850 1831.082,1570.500 1829.987 C 1572.150 1828.892,1574.850 1827.307,1576.500 1826.466 C 1578.150 1825.625,1580.850 1824.052,1582.500 1822.971 C 1584.150 1821.890,1586.737 1820.511,1588.250 1819.905 C 1589.762 1819.300,1591.000 1818.442,1591.000 1818.000 C 1591.000 1817.558,1592.237 1816.708,1593.750 1816.112 C 1595.263 1815.516,1597.175 1814.603,1598.000 1814.082 C 1601.186 1812.070,1616.576 1803.264,1618.000 1802.638 C 1618.825 1802.275,1620.850 1801.082,1622.500 1799.987 C 1624.150 1798.892,1626.886 1797.348,1628.580 1796.556 C 1633.390 1794.306,1634.676 1792.303,1633.000 1789.669 C 1632.240 1788.476,1626.016 1776.475,1619.167 1763.000 C 1605.211 1735.544,1602.235 1729.817,1594.482 1715.500 C 1591.504 1710.000,1588.794 1704.825,1588.461 1704.000 C 1588.128 1703.175,1587.462 1701.825,1586.981 1701.000 C 1586.500 1700.175,1582.439 1692.300,1577.957 1683.500 C 1573.475 1674.700,1565.172 1658.500,1559.505 1647.500 C 1553.838 1636.500,1544.840 1618.950,1539.508 1608.500 C 1523.039 1576.221,1513.561 1558.262,1512.092 1556.553 C 1511.250 1555.573,1511.049 1554.551,1511.592 1554.008 C 1512.114 1553.487,1545.894 1552.953,1591.000 1552.752 C 1646.640 1552.504,1671.102 1552.057,1675.000 1551.215 C 1678.025 1550.562,1683.200 1549.594,1686.500 1549.065 C 1702.567 1546.490,1719.800 1541.342,1735.500 1534.427 C 1746.946 1529.386,1751.806 1526.825,1766.119 1518.292 C 1772.856 1514.276,1791.024 1500.159,1798.248 1493.327 C 1810.294 1481.934,1826.579 1462.270,1833.581 1450.662 C 1835.187 1448.001,1837.250 1444.626,1838.168 1443.162 C 1840.316 1439.734,1847.218 1425.945,1850.012 1419.500 C 1851.205 1416.750,1852.577 1413.600,1853.063 1412.500 C 1854.661 1408.880,1857.143 1401.562,1857.981 1398.000 C 1858.433 1396.075,1859.275 1393.150,1859.851 1391.500 C 1861.813 1385.879,1863.992 1375.519,1865.530 1364.500 C 1866.899 1354.688,1867.026 1290.677,1866.706 772.000 C 1866.346 188.056,1866.322 184.191,1863.064 173.000 C 1862.109 169.720,1860.275 162.786,1857.906 153.500 C 1857.345 151.300,1856.461 149.073,1855.943 148.550 C 1855.424 148.028,1855.000 146.802,1855.000 145.827 C 1855.000 144.182,1852.721 138.426,1849.394 131.669 C 1848.627 130.112,1848.000 128.491,1848.000 128.068 C 1848.000 126.742,1836.961 106.835,1832.158 99.500 C 1817.199 76.651,1796.869 55.679,1773.500 38.987 C 1769.650 36.237,1765.600 33.533,1764.500 32.979 C 1763.400 32.424,1761.150 31.119,1759.500 30.078 C 1756.066 27.911,1741.674 20.682,1735.000 17.772 C 1732.525 16.693,1729.226 15.177,1727.669 14.405 C 1726.112 13.632,1724.215 13.000,1723.453 13.000 C 1722.691 13.000,1720.590 12.373,1718.784 11.608 C 1711.386 8.471,1694.951 4.452,1679.000 1.879 C 1669.350 0.322,196.936 -0.536,195.386 1.014 M1663.150 186.838 C 1673.206 191.886,1678.320 197.594,1682.557 208.500 C 1684.473 213.430,1684.500 221.430,1684.500 776.500 C 1684.500 1332.726,1684.476 1339.560,1682.546 1344.500 C 1678.421 1355.054,1670.499 1362.919,1659.960 1366.923 C 1654.650 1368.941,1652.987 1368.969,1537.039 1369.000 C 1472.392 1369.018,1418.754 1369.025,1417.842 1369.016 C 1416.707 1369.005,1413.599 1363.869,1407.999 1352.750 C 1403.497 1343.813,1396.781 1330.650,1393.073 1323.500 C 1389.365 1316.350,1380.334 1298.800,1373.004 1284.500 C 1356.219 1251.755,1350.101 1239.901,1349.008 1238.000 C 1348.533 1237.175,1347.873 1235.825,1347.540 1235.000 C 1347.208 1234.175,1342.269 1224.500,1336.564 1213.500 C 1330.859 1202.500,1322.525 1186.300,1318.043 1177.500 C 1313.561 1168.700,1309.468 1160.713,1308.947 1159.750 C 1308.426 1158.787,1307.576 1157.213,1307.058 1156.250 C 1306.539 1155.287,1303.842 1150.000,1301.064 1144.500 C 1298.286 1139.000,1295.046 1132.855,1293.864 1130.844 C 1292.681 1128.833,1291.980 1126.495,1292.305 1125.648 C 1292.630 1124.801,1295.282 1122.916,1298.198 1121.459 C 1301.114 1120.002,1305.300 1117.738,1307.500 1116.429 C 1309.700 1115.119,1312.400 1113.580,1313.500 1113.009 C 1314.600 1112.438,1316.850 1111.082,1318.500 1109.996 C 1320.150 1108.910,1322.175 1107.720,1323.000 1107.351 C 1324.484 1106.687,1347.105 1093.780,1350.000 1091.946 C 1350.825 1091.423,1352.400 1090.591,1353.500 1090.098 C 1354.600 1089.604,1357.270 1087.988,1359.434 1086.505 C 1361.598 1085.023,1364.298 1083.404,1365.434 1082.908 C 1366.570 1082.411,1368.175 1081.584,1369.000 1081.070 C 1374.034 1077.931,1387.864 1070.000,1388.302 1070.000 C 1388.590 1070.000,1391.217 1068.425,1394.140 1066.500 C 1397.063 1064.575,1399.849 1063.000,1400.332 1063.000 C 1400.815 1063.000,1403.210 1061.650,1405.655 1060.000 C 1408.100 1058.350,1410.332 1057.000,1410.615 1057.000 C 1410.898 1057.000,1416.388 1053.922,1422.815 1050.160 C 1429.242 1046.398,1435.175 1043.018,1436.000 1042.649 C 1436.825 1042.280,1438.850 1041.090,1440.500 1040.004 C 1442.150 1038.918,1444.583 1037.557,1445.906 1036.980 C 1447.230 1036.403,1450.290 1034.596,1452.707 1032.965 C 1455.123 1031.334,1457.332 1030.000,1457.616 1030.000 C 1458.083 1030.000,1473.388 1021.308,1477.000 1018.992 C 1477.825 1018.463,1479.850 1017.357,1481.500 1016.535 C 1483.150 1015.713,1485.175 1014.588,1486.000 1014.035 C 1487.876 1012.777,1508.964 1000.646,1511.000 999.653 C 1515.149 997.630,1522.361 992.808,1523.750 991.129 C 1524.736 989.937,1525.000 961.273,1525.000 855.258 L 1525.000 720.898 1521.750 719.434 C 1519.963 718.629,1517.825 717.538,1517.000 717.009 C 1513.202 714.577,1480.993 696.000,1480.573 696.000 C 1480.313 696.000,1478.165 694.704,1475.800 693.121 C 1473.435 691.537,1469.102 688.949,1466.170 687.371 C 1463.239 685.792,1459.189 683.511,1457.170 682.301 C 1455.152 681.092,1452.600 679.623,1451.500 679.037 C 1450.400 678.450,1448.150 677.091,1446.500 676.017 C 1444.850 674.943,1442.150 673.383,1440.500 672.552 C 1438.850 671.720,1436.825 670.594,1436.000 670.049 C 1431.939 667.365,1412.031 656.000,1411.391 656.000 C 1410.988 656.000,1409.947 655.370,1409.079 654.601 C 1407.663 653.346,1399.771 648.685,1394.500 645.992 C 1393.400 645.430,1391.150 644.091,1389.500 643.017 C 1387.850 641.943,1385.150 640.375,1383.500 639.534 C 1381.850 638.693,1379.150 637.110,1377.500 636.017 C 1375.850 634.924,1373.417 633.557,1372.094 632.980 C 1370.770 632.403,1367.710 630.596,1365.293 628.965 C 1362.877 627.334,1360.669 626.000,1360.388 626.000 C 1360.106 626.000,1355.066 623.157,1349.188 619.681 C 1343.310 616.206,1337.825 613.035,1337.000 612.634 C 1336.175 612.233,1333.700 610.812,1331.500 609.476 C 1329.300 608.140,1326.600 606.580,1325.500 606.009 C 1324.400 605.438,1322.150 604.076,1320.500 602.983 C 1318.850 601.890,1316.150 600.307,1314.500 599.466 C 1312.850 598.625,1310.150 597.057,1308.500 595.983 C 1306.850 594.909,1304.417 593.557,1303.094 592.980 C 1301.770 592.403,1298.710 590.596,1296.293 588.965 C 1293.877 587.334,1291.287 586.000,1290.537 586.000 C 1289.788 586.000,1286.773 587.586,1283.837 589.524 C 1280.902 591.462,1276.700 593.967,1274.500 595.090 C 1272.300 596.212,1269.150 598.003,1267.500 599.068 C 1265.850 600.133,1263.150 601.693,1261.500 602.534 C 1259.850 603.375,1257.150 604.943,1255.500 606.017 C 1253.850 607.091,1251.509 608.408,1250.299 608.942 C 1249.088 609.476,1246.163 611.143,1243.799 612.646 C 1238.892 615.766,1230.910 620.338,1226.500 622.555 C 1224.850 623.385,1222.150 624.935,1220.500 626.000 C 1218.850 627.065,1216.150 628.617,1214.500 629.448 C 1212.850 630.280,1210.617 631.531,1209.538 632.230 C 1205.644 634.750,1199.411 638.432,1195.000 640.818 C 1186.898 645.199,1183.545 647.108,1180.500 649.070 C 1178.850 650.134,1176.150 651.693,1174.500 652.534 C 1172.850 653.375,1170.150 654.935,1168.500 656.000 C 1166.850 657.065,1164.150 658.615,1162.500 659.445 C 1158.090 661.662,1150.108 666.234,1145.201 669.354 C 1142.837 670.857,1139.912 672.524,1138.701 673.058 C 1137.491 673.592,1135.150 674.916,1133.500 676.000 C 1131.850 677.084,1129.600 678.377,1128.500 678.875 C 1127.400 679.372,1121.775 682.578,1116.000 686.000 C 1110.225 689.422,1104.600 692.628,1103.500 693.125 C 1102.400 693.623,1100.150 694.916,1098.500 696.000 C 1096.850 697.084,1094.417 698.443,1093.094 699.020 C 1091.770 699.597,1088.710 701.404,1086.293 703.035 C 1083.877 704.666,1081.733 706.000,1081.529 706.000 C 1081.325 706.000,1077.262 708.250,1072.500 711.000 C 1067.738 713.750,1063.540 716.012,1063.171 716.027 C 1062.802 716.042,1060.925 717.359,1059.000 718.955 L 1055.500 721.856 1055.179 855.362 C 1054.859 988.690,1054.950 993.000,1058.100 993.000 C 1058.666 993.000,1064.388 996.078,1070.815 999.840 C 1077.242 1003.602,1083.175 1006.982,1084.000 1007.351 C 1084.825 1007.720,1086.850 1008.918,1088.500 1010.013 C 1090.150 1011.108,1092.850 1012.709,1094.500 1013.571 C 1098.026 1015.413,1101.352 1017.362,1105.500 1020.016 C 1107.150 1021.072,1109.850 1022.625,1111.500 1023.466 C 1113.150 1024.307,1115.850 1025.892,1117.500 1026.987 C 1119.150 1028.082,1121.175 1029.281,1122.000 1029.651 C 1122.825 1030.021,1131.011 1034.751,1140.191 1040.162 C 1149.371 1045.573,1157.111 1050.000,1157.391 1050.000 C 1157.671 1050.000,1159.877 1051.334,1162.293 1052.965 C 1164.710 1054.596,1167.770 1056.403,1169.094 1056.980 C 1170.417 1057.557,1172.850 1058.916,1174.500 1060.000 C 1176.150 1061.084,1178.583 1062.443,1179.906 1063.020 C 1181.230 1063.597,1184.290 1065.404,1186.707 1067.035 C 1189.123 1068.666,1191.291 1070.000,1191.524 1070.000 C 1191.757 1070.000,1199.599 1074.500,1208.951 1080.000 C 1218.302 1085.500,1226.167 1090.000,1226.427 1090.000 C 1226.687 1090.000,1228.877 1091.334,1231.293 1092.965 C 1233.710 1094.596,1236.770 1096.403,1238.094 1096.980 C 1239.417 1097.557,1241.850 1098.909,1243.500 1099.983 C 1245.150 1101.057,1247.850 1102.625,1249.500 1103.466 C 1251.150 1104.307,1253.850 1105.892,1255.500 1106.987 C 1257.150 1108.082,1259.175 1109.285,1260.000 1109.660 C 1260.825 1110.035,1267.237 1113.697,1274.250 1117.798 C 1287.139 1125.337,1288.865 1127.208,1285.500 1130.000 C 1284.675 1130.685,1284.000 1131.711,1284.000 1132.280 C 1284.000 1133.322,1282.394 1136.549,1260.992 1178.500 C 1254.538 1191.150,1241.066 1217.700,1231.053 1237.500 C 1221.041 1257.300,1212.362 1274.400,1211.767 1275.500 C 1209.875 1278.996,1209.267 1280.182,1201.000 1296.500 C 1196.542 1305.300,1192.468 1313.287,1191.947 1314.250 C 1189.590 1318.606,1188.970 1319.828,1186.501 1325.000 C 1185.056 1328.025,1183.483 1331.175,1183.005 1332.000 C 1182.527 1332.825,1178.207 1341.281,1173.406 1350.791 C 1168.604 1360.301,1164.323 1368.300,1163.891 1368.567 C 1163.460 1368.834,1079.495 1369.048,977.303 1369.043 L 791.500 1369.033 789.750 1366.906 C 788.787 1365.736,788.000 1363.789,788.000 1362.580 C 788.000 1361.371,787.339 1359.509,786.532 1358.441 C 785.724 1357.374,785.049 1355.834,785.032 1355.019 C 784.996 1353.345,781.462 1343.863,779.378 1339.846 C 778.620 1338.386,777.986 1336.361,777.968 1335.346 C 777.951 1334.331,777.276 1332.626,776.468 1331.559 C 775.661 1330.491,774.985 1328.916,774.966 1328.059 C 774.947 1327.201,774.063 1324.700,773.000 1322.500 C 771.937 1320.300,771.053 1317.953,771.034 1317.284 C 771.015 1316.615,770.370 1314.590,769.601 1312.784 C 768.049 1309.140,766.259 1304.484,762.959 1295.500 C 761.747 1292.200,760.135 1288.306,759.378 1286.846 C 758.620 1285.386,758.000 1283.334,758.000 1282.287 C 758.000 1281.239,757.339 1279.509,756.532 1278.441 C 755.724 1277.374,755.047 1275.825,755.026 1275.000 C 755.005 1274.175,754.330 1272.240,753.527 1270.699 C 752.723 1269.159,751.637 1266.459,751.112 1264.699 C 750.588 1262.940,749.186 1259.025,747.997 1256.000 C 746.809 1252.975,744.610 1247.125,743.113 1243.000 C 741.615 1238.875,739.852 1234.517,739.195 1233.316 C 738.538 1232.114,738.000 1230.288,738.000 1229.257 C 738.000 1228.226,737.339 1226.509,736.532 1225.441 C 735.724 1224.374,735.034 1222.825,734.998 1222.000 C 734.962 1221.175,734.063 1218.700,733.000 1216.500 C 731.937 1214.300,731.053 1211.931,731.034 1211.236 C 731.015 1210.541,730.553 1209.191,730.007 1208.236 C 729.461 1207.281,728.386 1204.700,727.617 1202.500 C 723.837 1191.677,720.270 1182.282,719.195 1180.316 C 718.538 1179.114,718.000 1177.288,718.000 1176.257 C 718.000 1175.226,717.339 1173.509,716.532 1172.441 C 715.724 1171.374,715.047 1169.825,715.026 1169.000 C 715.005 1168.175,714.330 1166.240,713.527 1164.699 C 712.723 1163.159,711.637 1160.459,711.112 1158.699 C 710.588 1156.940,709.186 1153.025,707.997 1150.000 C 706.809 1146.975,704.610 1141.125,703.113 1137.000 C 701.615 1132.875,699.905 1128.600,699.313 1127.500 C 698.721 1126.400,697.924 1124.043,697.541 1122.261 C 697.159 1120.480,696.431 1118.766,695.923 1118.452 C 695.415 1118.139,694.985 1117.121,694.966 1116.191 C 694.947 1115.261,694.063 1112.700,693.000 1110.500 C 691.937 1108.300,691.053 1105.953,691.034 1105.284 C 691.015 1104.615,690.370 1102.590,689.601 1100.784 C 688.049 1097.140,686.259 1092.484,682.959 1083.500 C 681.747 1080.200,680.135 1076.306,679.378 1074.846 C 678.620 1073.386,678.000 1071.334,678.000 1070.287 C 678.000 1069.239,677.339 1067.509,676.532 1066.441 C 675.724 1065.374,675.034 1063.825,674.998 1063.000 C 674.962 1062.175,674.063 1059.700,673.000 1057.500 C 671.937 1055.300,671.053 1052.953,671.034 1052.284 C 671.015 1051.615,670.370 1049.590,669.601 1047.784 C 668.049 1044.140,666.259 1039.484,662.959 1030.500 C 661.747 1027.200,660.135 1023.306,659.378 1021.846 C 658.620 1020.386,657.986 1018.361,657.968 1017.346 C 657.951 1016.331,657.276 1014.626,656.468 1013.559 C 655.661 1012.491,654.985 1010.916,654.966 1010.059 C 654.947 1009.201,654.063 1006.700,653.000 1004.500 C 651.937 1002.300,651.053 999.953,651.034 999.284 C 651.015 998.615,650.370 996.590,649.601 994.784 C 648.049 991.140,646.259 986.484,642.959 977.500 C 641.747 974.200,640.135 970.306,639.378 968.846 C 638.620 967.386,637.986 965.361,637.968 964.346 C 637.951 963.331,637.276 961.626,636.468 960.559 C 635.661 959.491,634.997 957.916,634.994 957.059 C 634.990 956.201,634.330 954.240,633.527 952.699 C 632.723 951.159,631.637 948.459,631.112 946.699 C 630.588 944.940,629.187 941.025,628.000 938.000 C 626.813 934.975,625.412 931.060,624.888 929.301 C 624.363 927.541,623.277 924.841,622.473 923.301 C 621.670 921.760,620.995 919.825,620.974 919.000 C 620.953 918.175,620.276 916.626,619.468 915.559 C 618.661 914.491,618.000 912.840,618.000 911.890 C 618.000 910.940,617.367 908.888,616.594 907.331 C 615.821 905.774,614.210 901.800,613.013 898.500 C 611.816 895.200,610.141 890.837,609.291 888.804 C 608.440 886.771,607.979 884.497,608.265 883.751 C 608.702 882.614,620.957 874.949,626.000 872.659 C 626.825 872.284,628.850 871.090,630.500 870.004 C 632.150 868.918,634.583 867.557,635.906 866.980 C 637.230 866.403,640.290 864.596,642.707 862.965 C 645.123 861.334,647.505 860.000,648.000 860.000 C 648.495 860.000,650.835 858.704,653.200 857.121 C 655.565 855.537,659.898 852.949,662.830 851.371 C 665.761 849.792,669.811 847.509,671.830 846.298 C 673.848 845.086,676.175 843.769,677.000 843.371 C 677.825 842.972,680.300 841.515,682.500 840.133 C 684.700 838.750,688.975 836.280,692.000 834.643 C 700.524 830.031,701.216 829.631,705.799 826.681 C 708.163 825.159,711.088 823.476,712.299 822.942 C 713.509 822.408,715.850 821.084,717.500 820.000 C 719.150 818.916,721.491 817.592,722.701 817.058 C 723.912 816.524,726.837 814.856,729.201 813.351 C 731.566 811.847,735.525 809.505,738.000 808.148 C 740.475 806.790,744.300 804.634,746.500 803.357 C 748.700 802.079,751.400 800.565,752.500 799.993 C 753.600 799.421,756.300 797.861,758.500 796.528 C 760.700 795.194,763.400 793.627,764.500 793.045 C 765.600 792.463,769.200 790.402,772.500 788.464 C 775.800 786.526,779.850 784.264,781.500 783.438 C 783.150 782.612,785.850 781.055,787.500 779.979 C 789.150 778.902,791.625 777.470,793.000 776.796 C 794.375 776.122,797.300 774.439,799.500 773.056 C 806.250 768.812,807.427 768.119,809.552 767.143 C 811.739 766.138,826.487 757.668,829.000 755.974 C 829.825 755.417,831.625 754.407,833.000 753.728 C 834.375 753.048,836.737 751.655,838.250 750.631 L 841.000 748.770 841.000 613.349 L 841.000 477.929 836.750 475.987 C 834.413 474.919,829.800 472.463,826.500 470.529 C 823.200 468.595,819.600 466.553,818.500 465.992 C 817.400 465.430,815.150 464.076,813.500 462.983 C 811.850 461.890,809.150 460.307,807.500 459.466 C 805.850 458.625,803.150 457.057,801.500 455.983 C 799.850 454.909,797.417 453.557,796.094 452.980 C 794.770 452.403,791.710 450.596,789.293 448.965 C 786.877 447.334,784.669 446.000,784.388 446.000 C 784.106 446.000,778.948 443.075,772.925 439.500 C 766.903 435.925,761.778 433.000,761.538 433.000 C 761.297 433.000,759.123 431.666,756.707 430.035 C 754.290 428.404,751.230 426.597,749.906 426.020 C 748.583 425.443,746.150 424.076,744.500 422.983 C 742.850 421.890,740.150 420.307,738.500 419.466 C 736.850 418.625,734.150 417.057,732.500 415.983 C 730.850 414.909,728.417 413.557,727.094 412.980 C 725.770 412.403,722.710 410.596,720.293 408.965 C 717.877 407.334,715.687 406.000,715.427 406.000 C 715.167 406.000,707.302 401.500,697.951 396.000 C 688.599 390.500,680.757 386.000,680.524 386.000 C 680.291 386.000,678.165 384.704,675.800 383.121 C 673.435 381.537,669.102 378.949,666.170 377.371 C 663.239 375.792,659.189 373.509,657.170 372.298 C 655.152 371.086,652.825 369.769,652.000 369.371 C 651.175 368.972,648.700 367.494,646.500 366.085 C 644.300 364.676,641.375 362.964,640.000 362.281 C 638.625 361.597,636.825 360.590,636.000 360.042 C 632.977 358.035,617.115 349.000,616.616 349.000 C 616.332 349.000,614.100 347.650,611.655 346.000 C 607.119 342.938,605.425 342.389,604.833 343.787 C 604.650 344.220,600.900 346.656,596.500 349.201 C 592.100 351.746,586.925 354.761,585.000 355.902 C 583.075 357.042,580.417 358.446,579.094 359.022 C 577.770 359.598,574.710 361.404,572.293 363.035 C 569.877 364.666,567.723 366.000,567.508 366.000 C 567.292 366.000,562.113 368.925,556.000 372.500 C 549.887 376.075,544.609 379.000,544.271 379.000 C 543.934 379.000,542.947 379.614,542.079 380.364 C 541.210 381.114,536.900 383.653,532.500 386.006 C 528.100 388.360,522.565 391.571,520.200 393.143 C 517.835 394.714,515.668 396.000,515.384 396.000 C 515.101 396.000,511.186 398.166,506.684 400.814 C 502.183 403.462,497.825 405.942,497.000 406.325 C 496.175 406.708,494.150 407.912,492.500 409.000 C 490.850 410.088,488.375 411.532,487.000 412.208 C 484.701 413.338,464.466 424.879,461.000 427.036 C 460.175 427.550,458.150 428.651,456.500 429.483 C 454.850 430.315,452.150 431.892,450.500 432.987 C 448.850 434.082,446.825 435.293,446.000 435.678 C 445.175 436.064,438.200 440.044,430.500 444.523 C 422.800 449.003,415.825 452.972,415.000 453.345 C 414.175 453.717,412.150 454.903,410.500 455.979 C 408.850 457.056,406.150 458.617,404.500 459.448 C 402.850 460.280,400.825 461.412,400.000 461.965 C 395.939 464.687,375.770 476.000,374.978 476.000 C 374.479 476.000,373.613 476.855,373.054 477.899 C 372.384 479.152,371.946 525.526,371.769 614.065 L 371.500 748.332 374.500 750.151 C 376.150 751.152,378.491 752.408,379.701 752.942 C 380.912 753.476,383.837 755.156,386.201 756.675 C 388.566 758.194,392.525 760.521,395.000 761.848 C 397.475 763.174,401.435 765.551,403.800 767.130 C 406.165 768.708,408.353 770.000,408.661 770.000 C 408.970 770.000,412.885 772.183,417.361 774.851 C 421.838 777.520,426.175 780.000,427.000 780.362 C 427.825 780.725,429.850 781.918,431.500 783.013 C 433.150 784.108,435.850 785.693,437.500 786.534 C 439.150 787.375,441.850 788.943,443.500 790.017 C 445.150 791.091,447.491 792.408,448.701 792.942 C 449.912 793.476,452.837 795.161,455.201 796.686 C 461.293 800.616,463.289 801.824,465.000 802.617 C 465.825 802.999,472.890 807.067,480.699 811.656 C 488.509 816.245,495.124 820.000,495.399 820.000 C 495.674 820.000,497.835 821.296,500.200 822.879 C 502.565 824.463,506.750 826.970,509.500 828.450 C 512.250 829.929,515.850 832.010,517.500 833.072 C 519.150 834.135,521.850 835.693,523.500 836.534 C 525.150 837.375,527.850 838.935,529.500 840.000 C 531.150 841.065,533.850 842.625,535.500 843.466 C 537.150 844.307,539.850 845.892,541.500 846.987 C 543.150 848.082,545.175 849.275,546.000 849.638 C 546.825 850.000,551.162 852.480,555.639 855.149 C 560.115 857.817,564.030 860.000,564.339 860.000 C 564.647 860.000,566.835 861.292,569.200 862.870 C 571.565 864.449,575.525 866.826,578.000 868.152 C 580.475 869.479,584.434 871.806,586.799 873.325 C 589.163 874.844,592.088 876.536,593.299 877.086 C 596.294 878.446,599.017 880.092,602.524 882.660 C 605.402 884.768,605.429 884.868,603.648 886.837 C 602.644 887.946,601.449 890.349,600.993 892.177 C 599.921 896.470,594.221 911.719,592.404 915.154 C 591.632 916.614,591.000 918.570,591.000 919.500 C 591.000 920.430,590.368 922.386,589.596 923.846 C 587.767 927.303,582.075 942.543,580.996 946.872 C 580.534 948.727,579.670 950.730,579.078 951.322 C 578.485 951.915,577.997 953.097,577.994 953.950 C 577.990 954.802,577.330 956.760,576.527 958.301 C 575.723 959.841,574.637 962.541,574.112 964.301 C 573.588 966.060,572.187 969.975,571.000 973.000 C 569.813 976.025,568.412 979.940,567.888 981.699 C 567.363 983.459,566.277 986.159,565.473 987.699 C 564.670 989.240,564.010 991.011,564.006 991.636 C 564.003 992.260,563.328 994.060,562.506 995.636 C 561.685 997.211,561.010 999.201,561.006 1000.059 C 561.003 1000.916,560.339 1002.491,559.532 1003.559 C 558.724 1004.626,558.049 1006.166,558.032 1006.981 C 557.996 1008.655,554.462 1018.137,552.378 1022.154 C 551.620 1023.614,551.000 1025.556,551.000 1026.470 C 551.000 1027.384,550.462 1029.114,549.805 1030.316 C 548.748 1032.249,545.597 1040.542,541.945 1051.000 C 541.273 1052.925,540.110 1055.694,539.361 1057.154 C 538.613 1058.614,538.000 1060.305,538.000 1060.911 C 538.000 1062.307,531.440 1079.560,529.475 1083.331 C 528.664 1084.888,528.000 1086.845,528.000 1087.680 C 528.000 1088.515,527.345 1090.616,526.545 1092.349 C 524.963 1095.774,522.448 1102.620,520.902 1107.714 C 520.365 1109.481,519.493 1111.196,518.963 1111.523 C 518.433 1111.850,517.985 1113.104,517.966 1114.309 C 517.947 1115.514,517.063 1118.300,516.000 1120.500 C 514.937 1122.700,514.038 1125.175,514.002 1126.000 C 513.966 1126.825,513.276 1128.374,512.468 1129.441 C 511.661 1130.509,511.000 1132.335,511.000 1133.500 C 511.000 1134.665,510.339 1136.491,509.532 1137.559 C 508.724 1138.626,508.049 1140.166,508.032 1140.981 C 507.996 1142.655,504.462 1152.137,502.378 1156.154 C 501.620 1157.614,501.000 1159.662,501.000 1160.704 C 501.000 1161.747,500.594 1163.028,500.098 1163.550 C 499.603 1164.073,497.840 1168.325,496.182 1173.000 C 494.524 1177.675,492.194 1183.975,491.004 1187.000 C 489.815 1190.025,488.380 1194.075,487.817 1196.000 C 487.253 1197.925,486.436 1199.950,486.000 1200.500 C 485.564 1201.050,484.747 1203.075,484.183 1205.000 C 483.620 1206.925,482.187 1210.975,481.000 1214.000 C 479.813 1217.025,478.412 1220.940,477.888 1222.699 C 477.363 1224.459,476.277 1227.159,475.473 1228.699 C 474.670 1230.240,473.995 1232.175,473.974 1233.000 C 473.953 1233.825,473.276 1235.374,472.468 1236.441 C 471.661 1237.509,471.000 1239.335,471.000 1240.500 C 471.000 1241.665,470.339 1243.491,469.532 1244.559 C 468.724 1245.626,468.049 1247.166,468.032 1247.981 C 467.996 1249.655,464.462 1259.137,462.378 1263.154 C 461.620 1264.614,461.000 1266.666,461.000 1267.713 C 461.000 1268.761,460.339 1270.491,459.532 1271.559 C 458.724 1272.626,458.049 1274.107,458.032 1274.849 C 458.014 1275.591,457.392 1277.616,456.649 1279.349 C 455.906 1281.082,454.300 1285.200,453.080 1288.500 C 451.859 1291.800,450.217 1295.978,449.430 1297.784 C 448.644 1299.590,447.997 1301.615,447.994 1302.284 C 447.990 1302.953,447.330 1304.760,446.527 1306.301 C 445.723 1307.841,444.629 1310.541,444.094 1312.301 C 443.101 1315.572,441.733 1319.293,437.958 1329.000 C 436.781 1332.025,435.176 1336.510,434.392 1338.968 C 433.607 1341.425,432.523 1343.877,431.982 1344.418 C 431.442 1344.958,431.000 1346.349,431.000 1347.509 C 431.000 1348.669,430.339 1350.491,429.532 1351.559 C 428.724 1352.626,428.049 1354.412,428.032 1355.527 C 428.014 1356.643,427.382 1358.443,426.628 1359.527 C 425.873 1360.612,424.938 1362.957,424.551 1364.739 C 424.163 1366.520,423.435 1368.231,422.932 1368.542 C 422.429 1368.853,375.150 1369.071,317.867 1369.028 C 200.870 1368.938,208.431 1369.420,197.905 1361.390 C 189.644 1355.088,185.616 1348.529,184.040 1338.813 C 182.658 1330.298,182.609 222.004,183.990 213.496 C 186.114 200.411,195.065 189.855,208.000 185.181 C 213.471 183.204,217.320 183.194,935.000 183.347 L 1656.500 183.500 1663.150 186.838 M1070.000 1553.950 C 1070.000 1554.549,1068.973 1556.718,1067.719 1558.770 C 1065.651 1562.150,1053.749 1585.351,1046.689 1599.762 C 1045.143 1602.918,1043.496 1606.175,1043.028 1607.000 C 1042.560 1607.825,1037.158 1618.400,1031.023 1630.500 C 1024.889 1642.600,1019.477 1653.175,1018.998 1654.000 C 1018.518 1654.825,1016.944 1657.975,1015.499 1661.000 C 1012.769 1666.718,1011.701 1668.798,1009.980 1671.750 C 1009.419 1672.713,1008.287 1674.850,1007.465 1676.500 C 1006.643 1678.150,1005.559 1680.175,1005.057 1681.000 C 1004.555 1681.825,1003.890 1683.175,1003.579 1684.000 C 1003.267 1684.825,1002.592 1686.175,1002.079 1687.000 C 1001.565 1687.825,1000.870 1689.175,1000.534 1690.000 C 1000.198 1690.825,993.687 1703.650,986.063 1718.500 C 978.440 1733.350,967.320 1755.269,961.351 1767.209 C 951.198 1787.521,948.009 1792.187,947.994 1786.750 C 947.990 1785.513,947.315 1783.211,946.494 1781.636 C 945.672 1780.060,945.000 1778.205,945.000 1777.513 C 945.000 1776.361,943.073 1771.470,939.418 1763.349 C 938.638 1761.616,938.000 1759.515,938.000 1758.680 C 938.000 1757.845,937.346 1755.888,936.547 1754.331 C 935.749 1752.774,934.118 1748.800,932.925 1745.500 C 931.732 1742.200,930.135 1738.306,929.378 1736.846 C 928.620 1735.386,928.000 1733.334,928.000 1732.287 C 928.000 1731.239,927.339 1729.509,926.532 1728.441 C 925.724 1727.374,925.049 1725.669,925.032 1724.654 C 925.014 1723.639,924.380 1721.614,923.622 1720.154 C 922.865 1718.694,921.253 1714.800,920.041 1711.500 C 918.829 1708.200,917.235 1703.925,916.500 1702.000 C 915.765 1700.075,914.159 1695.800,912.932 1692.500 C 911.705 1689.200,910.094 1685.082,909.351 1683.349 C 908.608 1681.616,908.000 1679.578,908.000 1678.821 C 908.000 1678.064,907.403 1676.557,906.673 1675.473 C 905.944 1674.388,904.322 1670.575,903.070 1667.000 C 901.817 1663.425,900.214 1659.150,899.507 1657.500 C 895.568 1648.308,894.997 1646.826,894.966 1645.716 C 894.947 1645.047,894.063 1642.700,893.000 1640.500 C 891.937 1638.300,891.053 1635.953,891.034 1635.284 C 891.015 1634.615,890.356 1632.590,889.568 1630.784 C 886.034 1622.678,880.997 1609.321,880.968 1607.978 C 880.951 1607.165,880.276 1605.626,879.468 1604.559 C 878.661 1603.491,877.986 1601.691,877.968 1600.559 C 877.951 1599.426,877.276 1597.626,876.468 1596.559 C 875.661 1595.491,874.985 1593.916,874.966 1593.059 C 874.947 1592.201,874.063 1589.700,873.000 1587.500 C 871.937 1585.300,871.053 1582.953,871.034 1582.284 C 871.015 1581.615,870.370 1579.590,869.601 1577.784 C 868.831 1575.978,867.402 1572.475,866.424 1570.000 C 865.446 1567.525,863.826 1563.612,862.823 1561.305 C 861.820 1558.998,861.000 1556.249,861.000 1555.196 C 861.000 1553.325,863.316 1553.278,965.500 1553.072 C 1040.364 1552.920,1070.000 1553.169,1070.000 1553.950 " stroke="none" fill="rgb(14, 255, 163)" fill-rule="evenodd"></path></svg></g></g></svg>